<mxfile host="app.diagrams.net" modified="2021-03-06T14:44:40.576Z" agent="5.0 (Macintosh; Intel Mac OS X 11_2_1) AppleWebKit/537.36 (KHTML, like Gecko) Chrome/88.0.4324.192 Safari/537.36" etag="plHuHbS_Fi6SEjoU9FIw" version="14.2.7" type="github">
  <diagram id="0BgJp6alHrJ_kDM1xmPn" name="Page-1">
    <mxGraphModel dx="1426" dy="794" grid="1" gridSize="10" guides="1" tooltips="1" connect="1" arrows="1" fold="1" page="1" pageScale="1" pageWidth="850" pageHeight="1100" math="0" shadow="0">
      <root>
        <mxCell id="0" />
        <mxCell id="1" parent="0" />
        <mxCell id="KUN1iIOQj1WE4iPNb-C9-6" style="edgeStyle=none;rounded=0;orthogonalLoop=1;jettySize=auto;html=1;exitX=0.5;exitY=1;exitDx=0;exitDy=0;exitPerimeter=0;entryX=0.5;entryY=0;entryDx=0;entryDy=0;" edge="1" parent="1" source="KUN1iIOQj1WE4iPNb-C9-2" target="KUN1iIOQj1WE4iPNb-C9-3">
          <mxGeometry relative="1" as="geometry" />
        </mxCell>
        <mxCell id="KUN1iIOQj1WE4iPNb-C9-2" value="Start" style="strokeWidth=2;html=1;shape=mxgraph.flowchart.terminator;whiteSpace=wrap;" vertex="1" parent="1">
          <mxGeometry x="200" y="40" width="100" height="60" as="geometry" />
        </mxCell>
        <mxCell id="KUN1iIOQj1WE4iPNb-C9-8" style="edgeStyle=orthogonalEdgeStyle;rounded=0;orthogonalLoop=1;jettySize=auto;html=1;exitX=0;exitY=0.5;exitDx=0;exitDy=0;entryX=0.417;entryY=0;entryDx=0;entryDy=0;entryPerimeter=0;" edge="1" parent="1" source="KUN1iIOQj1WE4iPNb-C9-3" target="KUN1iIOQj1WE4iPNb-C9-4">
          <mxGeometry relative="1" as="geometry" />
        </mxCell>
        <mxCell id="KUN1iIOQj1WE4iPNb-C9-11" value="No" style="edgeLabel;html=1;align=center;verticalAlign=middle;resizable=0;points=[];" vertex="1" connectable="0" parent="KUN1iIOQj1WE4iPNb-C9-8">
          <mxGeometry x="-0.25" relative="1" as="geometry">
            <mxPoint as="offset" />
          </mxGeometry>
        </mxCell>
        <mxCell id="KUN1iIOQj1WE4iPNb-C9-9" style="edgeStyle=orthogonalEdgeStyle;rounded=0;orthogonalLoop=1;jettySize=auto;html=1;exitX=1;exitY=0.5;exitDx=0;exitDy=0;entryX=0.5;entryY=0;entryDx=0;entryDy=0;" edge="1" parent="1" source="KUN1iIOQj1WE4iPNb-C9-3" target="KUN1iIOQj1WE4iPNb-C9-5">
          <mxGeometry relative="1" as="geometry" />
        </mxCell>
        <mxCell id="KUN1iIOQj1WE4iPNb-C9-12" value="Yes" style="edgeLabel;html=1;align=center;verticalAlign=middle;resizable=0;points=[];" vertex="1" connectable="0" parent="KUN1iIOQj1WE4iPNb-C9-9">
          <mxGeometry x="-0.24" y="1" relative="1" as="geometry">
            <mxPoint as="offset" />
          </mxGeometry>
        </mxCell>
        <mxCell id="KUN1iIOQj1WE4iPNb-C9-3" value="Height &amp;gt;= 120cm?" style="rhombus;whiteSpace=wrap;html=1;" vertex="1" parent="1">
          <mxGeometry x="210" y="140" width="80" height="80" as="geometry" />
        </mxCell>
        <mxCell id="KUN1iIOQj1WE4iPNb-C9-4" value="Cant&#39;t ride" style="rounded=1;whiteSpace=wrap;html=1;" vertex="1" parent="1">
          <mxGeometry x="40" y="220" width="120" height="60" as="geometry" />
        </mxCell>
        <mxCell id="KUN1iIOQj1WE4iPNb-C9-15" style="edgeStyle=orthogonalEdgeStyle;rounded=0;orthogonalLoop=1;jettySize=auto;html=1;exitX=0.5;exitY=1;exitDx=0;exitDy=0;entryX=0.5;entryY=0;entryDx=0;entryDy=0;" edge="1" parent="1" source="KUN1iIOQj1WE4iPNb-C9-5" target="KUN1iIOQj1WE4iPNb-C9-10">
          <mxGeometry relative="1" as="geometry" />
        </mxCell>
        <mxCell id="KUN1iIOQj1WE4iPNb-C9-5" value="Can ride" style="rounded=1;whiteSpace=wrap;html=1;" vertex="1" parent="1">
          <mxGeometry x="335" y="220" width="120" height="60" as="geometry" />
        </mxCell>
        <mxCell id="KUN1iIOQj1WE4iPNb-C9-16" style="edgeStyle=orthogonalEdgeStyle;rounded=0;orthogonalLoop=1;jettySize=auto;html=1;exitX=1;exitY=0.5;exitDx=0;exitDy=0;entryX=0.5;entryY=0;entryDx=0;entryDy=0;" edge="1" parent="1" source="KUN1iIOQj1WE4iPNb-C9-10" target="KUN1iIOQj1WE4iPNb-C9-14">
          <mxGeometry relative="1" as="geometry">
            <mxPoint x="520" y="460" as="targetPoint" />
          </mxGeometry>
        </mxCell>
        <mxCell id="KUN1iIOQj1WE4iPNb-C9-19" value="Over 18" style="edgeLabel;html=1;align=center;verticalAlign=middle;resizable=0;points=[];" vertex="1" connectable="0" parent="KUN1iIOQj1WE4iPNb-C9-16">
          <mxGeometry x="-0.5444" y="1" relative="1" as="geometry">
            <mxPoint as="offset" />
          </mxGeometry>
        </mxCell>
        <mxCell id="KUN1iIOQj1WE4iPNb-C9-17" style="edgeStyle=orthogonalEdgeStyle;rounded=0;orthogonalLoop=1;jettySize=auto;html=1;exitX=0;exitY=0.5;exitDx=0;exitDy=0;entryX=0.5;entryY=0;entryDx=0;entryDy=0;" edge="1" parent="1" source="KUN1iIOQj1WE4iPNb-C9-10" target="KUN1iIOQj1WE4iPNb-C9-13">
          <mxGeometry relative="1" as="geometry" />
        </mxCell>
        <mxCell id="KUN1iIOQj1WE4iPNb-C9-18" value="18 or under" style="edgeLabel;html=1;align=center;verticalAlign=middle;resizable=0;points=[];" vertex="1" connectable="0" parent="KUN1iIOQj1WE4iPNb-C9-17">
          <mxGeometry x="-0.6933" y="-1" relative="1" as="geometry">
            <mxPoint x="-30" y="1" as="offset" />
          </mxGeometry>
        </mxCell>
        <mxCell id="KUN1iIOQj1WE4iPNb-C9-21" value="12-18" style="edgeStyle=orthogonalEdgeStyle;rounded=0;orthogonalLoop=1;jettySize=auto;html=1;exitX=0.5;exitY=1;exitDx=0;exitDy=0;entryX=0.5;entryY=0;entryDx=0;entryDy=0;" edge="1" parent="1" source="KUN1iIOQj1WE4iPNb-C9-10" target="KUN1iIOQj1WE4iPNb-C9-20">
          <mxGeometry relative="1" as="geometry" />
        </mxCell>
        <mxCell id="KUN1iIOQj1WE4iPNb-C9-10" value="age" style="rhombus;whiteSpace=wrap;html=1;" vertex="1" parent="1">
          <mxGeometry x="355" y="340" width="80" height="80" as="geometry" />
        </mxCell>
        <mxCell id="KUN1iIOQj1WE4iPNb-C9-13" value="$5" style="rounded=1;whiteSpace=wrap;html=1;" vertex="1" parent="1">
          <mxGeometry x="110" y="470" width="120" height="60" as="geometry" />
        </mxCell>
        <mxCell id="KUN1iIOQj1WE4iPNb-C9-14" value="$12" style="rounded=1;whiteSpace=wrap;html=1;" vertex="1" parent="1">
          <mxGeometry x="560" y="470" width="120" height="60" as="geometry" />
        </mxCell>
        <mxCell id="KUN1iIOQj1WE4iPNb-C9-20" value="$7" style="rounded=1;whiteSpace=wrap;html=1;" vertex="1" parent="1">
          <mxGeometry x="335" y="470" width="120" height="60" as="geometry" />
        </mxCell>
        <mxCell id="KUN1iIOQj1WE4iPNb-C9-22" value="Want photos?" style="rhombus;whiteSpace=wrap;html=1;" vertex="1" parent="1">
          <mxGeometry x="355" y="600" width="80" height="80" as="geometry" />
        </mxCell>
        <mxCell id="KUN1iIOQj1WE4iPNb-C9-23" value="+$3" style="rounded=1;whiteSpace=wrap;html=1;" vertex="1" parent="1">
          <mxGeometry x="560" y="680" width="120" height="60" as="geometry" />
        </mxCell>
        <mxCell id="KUN1iIOQj1WE4iPNb-C9-24" value="Total bill $x" style="rounded=1;whiteSpace=wrap;html=1;" vertex="1" parent="1">
          <mxGeometry x="335" y="820" width="120" height="60" as="geometry" />
        </mxCell>
      </root>
    </mxGraphModel>
  </diagram>
</mxfile>
